<svg width="34" height="34" viewBox="0 0 34 34" fill="none" xmlns="http://www.w3.org/2000/svg">
<path fill-rule="evenodd" clip-rule="evenodd" d="M14.2 5H14.4667C15.4922 5 16.4757 5.40738 17.2008 6.13252C17.926 6.85766 18.3333 7.84116 18.3333 8.86667V10.4667C18.3333 11.4922 17.926 12.4757 17.2008 13.2008C16.4757 13.926 15.4922 14.3333 14.4667 14.3333H14.2C13.1745 14.3333 12.191 13.926 11.4659 13.2008C10.7407 12.4757 10.3333 11.4922 10.3333 10.4667V8.86667C10.3333 7.84116 10.7407 6.85766 11.4659 6.13252C12.191 5.40738 13.1745 5 14.2 5V5ZM24.7467 11.1067L19.2133 18.8667C19.5147 19.5373 19.668 20.2653 19.6667 21V27.2267C19.6646 27.6963 19.4771 28.1462 19.1449 28.4783C18.8128 28.8104 18.363 28.9979 17.8933 29L10.7733 28.9867C10.305 28.9877 9.85534 28.8031 9.52293 28.4732C9.19052 28.1432 9.00247 27.695 9 27.2267V21C9.00422 19.5868 9.56748 18.2327 10.5668 17.2334C11.566 16.2341 12.9201 15.6709 14.3333 15.6667C15.4691 15.6647 16.5743 16.0347 17.48 16.72L22.5867 9.56C22.8037 9.30658 23.1078 9.14372 23.439 9.10357C23.7702 9.06343 24.1044 9.14891 24.3757 9.34314C24.647 9.53738 24.8355 9.82626 24.9042 10.1527C24.9729 10.4792 24.9167 10.8196 24.7467 11.1067Z" fill="url(#paint0_linear_209_196)"/>
<defs>
<linearGradient id="paint0_linear_209_196" x1="7.14289" y1="22.1429" x2="24.7143" y2="21.2857" gradientUnits="userSpaceOnUse">
<stop stop-color="#D029EB"/>
<stop offset="1" stop-color="#EA67FF"/>
</linearGradient>
</defs>
</svg>
