<svg width="33" height="25" viewBox="0 0 33 25" fill="none" xmlns="http://www.w3.org/2000/svg">
<path d="M32.8574 9.18726L28.8942 0.702145C28.6925 0.270374 28.2945 0 27.8604 0H1.16744C0.522715 0 0 0.587233 0 1.31154C0 1.70544 0 19.2469 0 20.2705C0 20.9948 0.522715 21.5821 1.16744 21.5821C1.71194 21.5821 5.11403 21.5821 5.69244 21.5821C6.86168 26.1367 12.6317 26.1419 13.8023 21.5821H17.9537C19.1231 26.1374 24.8928 26.1408 26.0628 21.5821H31.8326C32.4773 21.5821 33 20.9948 33 20.2705V9.81576C33 9.60527 32.9504 9.3774 32.8574 9.18726ZM3.78488 18.959H2.33488V17.33H3.78488V18.959ZM2.33488 8.50423V2.62314H9.8844V8.50423H2.33488ZM9.74731 22.3888C8.70768 22.3888 7.86173 21.4385 7.86173 20.2705C7.86173 17.5361 11.502 17.4487 11.6301 20.1569C11.6315 20.1944 11.6324 20.232 11.6324 20.2705L11.6327 20.2761C11.63 21.4416 10.7853 22.3888 9.74731 22.3888ZM12.2193 8.50423V2.62314H20.7807V8.50423H12.2193ZM22.0086 22.3888C20.969 22.3888 20.123 21.4385 20.123 20.2705C20.123 17.5391 23.7662 17.4521 23.8907 20.16C23.8921 20.1965 23.893 20.2331 23.893 20.2705L23.8932 20.2739C23.8916 21.4404 23.0468 22.3888 22.0086 22.3888ZM23.1156 8.50423V2.62314H27.1547L29.9015 8.50423C28.7691 8.50423 23.6817 8.50423 23.1156 8.50423ZM30.6651 12.7563H29.2151V11.1275H30.6651V12.7563Z" fill="url(#paint0_linear_35_1156)"/>
<defs>
<linearGradient id="paint0_linear_35_1156" x1="0.458333" y1="9.26828" x2="36.6859" y2="10.9011" gradientUnits="userSpaceOnUse">
<stop stop-color="#EBE100"/>
<stop offset="1" stop-color="#FFF500" stop-opacity="0.94"/>
</linearGradient>
</defs>
</svg>
