<svg width="28" height="28" viewBox="0 0 28 28" fill="none" xmlns="http://www.w3.org/2000/svg">
<g clip-path="url(#clip0_47_335)">
<path d="M25.609 18.3159C24.2436 17.2186 22.9911 16.6851 21.7799 16.6851C20.0277 16.6851 18.7661 17.7997 17.6239 18.9416C17.4926 19.073 17.3335 19.1343 17.1235 19.1343C16.161 19.1344 14.4678 17.929 12.0908 15.5518C9.2945 12.7553 8.23724 10.9766 8.94816 10.2654C10.8754 8.33887 11.477 6.40753 8.52633 2.73787C7.47001 1.42315 6.43651 0.78418 5.36681 0.78418C3.92421 0.78418 2.82757 1.93733 1.86003 2.95482C1.69275 3.13071 1.53474 3.29686 1.37982 3.45178C0.286261 4.54525 0.286822 6.93032 1.38141 9.83218C2.58236 13.0161 4.95359 16.4797 8.05837 19.5849C10.4594 21.9858 13.0719 23.9261 15.6136 25.2289C17.8326 26.3663 19.985 26.9757 21.6743 26.9757C21.6745 26.9757 21.6747 26.9757 21.675 26.9757C22.7322 26.9757 23.5909 26.7451 24.158 26.2761C25.31 25.3236 27.4543 23.5594 27.44 21.4638C27.4321 20.3398 26.8163 19.2865 25.609 18.3159Z" fill="#797979"/>
</g>
<defs>
<clipPath id="clip0_47_335">
<rect width="26.88" height="26.88" fill="white" transform="translate(0.559998 0.439941)"/>
</clipPath>
</defs>
</svg>
