<svg width="34" height="34" viewBox="0 0 34 34" fill="none" xmlns="http://www.w3.org/2000/svg">
<path d="M14.149 20.7899L14.801 20.4379C15.0668 20.2944 15.1579 19.9765 15.0044 19.7279L13.7689 17.7268C13.666 17.5601 13.4792 17.4669 13.2872 17.4669C13.1929 17.4669 13.0974 17.4893 13.0099 17.5366L12.3579 17.8886C12.2683 17.9369 12.1733 17.959 12.0808 17.959C11.7905 17.959 11.5243 17.742 11.5243 17.4386V16.7345C11.5243 16.4475 11.2755 16.2148 10.9686 16.2148H8.49751C8.19063 16.2148 7.94175 16.4475 7.94175 16.7345V17.4386C7.94175 17.742 7.67543 17.959 7.38524 17.959C7.29274 17.959 7.19777 17.9369 7.10821 17.8886L6.45616 17.5366C6.36869 17.4894 6.27306 17.4669 6.17885 17.4669C5.98675 17.4669 5.80004 17.5601 5.69712 17.7268L4.46164 19.7279C4.3082 19.9765 4.39928 20.2944 4.66502 20.4379L5.31707 20.7899C5.68754 20.9899 5.68754 21.49 5.31707 21.69L4.66502 22.042C4.39918 22.1855 4.3082 22.5033 4.46164 22.7519L5.69712 24.7531C5.80004 24.9198 5.98684 25.013 6.17885 25.013C6.27315 25.013 6.36869 24.9905 6.45616 24.9433L7.10821 24.5912C7.19777 24.5429 7.29274 24.5209 7.38524 24.5209C7.67553 24.5209 7.94175 24.7379 7.94175 25.0413V25.7454C7.94175 26.0323 8.19053 26.2651 8.49751 26.2651H10.9685C11.2753 26.2651 11.5242 26.0324 11.5242 25.7454V25.0413C11.5242 24.7379 11.7905 24.5209 12.0807 24.5209C12.1732 24.5209 12.2682 24.5429 12.3578 24.5912L13.0098 24.9433C13.0973 24.9905 13.1929 25.013 13.2871 25.013C13.4792 25.013 13.6659 24.9198 13.7689 24.7531L15.0043 22.7519C15.1578 22.5033 15.0667 22.1855 14.8009 22.042L14.1489 21.69C13.7785 21.49 13.7785 20.9898 14.149 20.7899V20.7899ZM9.73308 22.7817C8.82249 22.7817 8.08439 22.0914 8.08439 21.2399C8.08439 20.3884 8.82258 19.6982 9.73308 19.6982C10.6436 19.6982 11.3818 20.3885 11.3818 21.2399C11.3818 22.0914 10.6436 22.7817 9.73308 22.7817Z" fill="url(#paint0_linear_209_176)"/>
<path d="M13.7203 6.48396C13.4221 6.20532 12.939 6.20532 12.6409 6.48396C12.3428 6.76279 12.3428 7.21462 12.6409 7.49335L14.0047 8.76862C8.99217 9.00074 4.93469 12.6826 4.49561 17.3218L4.60839 17.139C4.93119 16.6161 5.533 16.2913 6.1788 16.2914C6.19244 16.2914 6.206 16.2925 6.21964 16.2929C7.07963 12.9497 10.1968 10.4212 13.9736 10.2016L12.6409 11.4478C12.3428 11.7265 12.3428 12.1784 12.6409 12.4572C12.79 12.5965 12.9852 12.6661 13.1805 12.6661C13.3759 12.6661 13.5712 12.5965 13.7202 12.4572L16.3742 9.97521C16.5173 9.84129 16.5977 9.65978 16.5977 9.47056C16.5977 9.28125 16.5173 9.09974 16.3742 8.96591L13.7203 6.48396V6.48396Z" fill="url(#paint1_linear_209_176)"/>
<path d="M23.3645 10.1353C25.0591 10.1353 26.4378 8.84599 26.4378 7.26123C26.4378 5.67638 25.0591 4.3871 23.3645 4.3871C21.6698 4.3871 20.2911 5.67638 20.2911 7.26114C20.2911 8.8459 21.6698 10.1353 23.3645 10.1353Z" fill="url(#paint2_linear_209_176)"/>
<path d="M29.3515 17.883V13.932C29.3515 12.8383 28.5999 11.8685 27.4885 11.528L27.4834 11.5265L25.8578 11.2747C25.7194 11.235 25.5716 11.3035 25.5218 11.4311L23.6773 16.1637C23.5709 16.4368 23.158 16.4368 23.0516 16.1637L21.2071 11.4311C21.1669 11.328 21.0629 11.2634 20.9514 11.2634C20.925 11.2634 19.2456 11.5261 19.2456 11.5261C18.1251 11.8753 17.3763 12.8467 17.3763 13.9451V17.883C17.3763 18.4732 17.8879 18.9515 18.5189 18.9515H28.2088C28.84 18.9515 29.3515 18.4731 29.3515 17.883V17.883Z" fill="url(#paint3_linear_209_176)"/>
<path d="M30.7096 18.8276C30.6458 19.6443 29.9293 20.1444 29.0558 20.2036C28.3865 23.7864 25.1504 26.5529 21.1915 26.7831L22.5242 25.5369C22.8222 25.2581 22.8222 24.8062 22.5242 24.5275C22.226 24.2489 21.7429 24.2489 21.4448 24.5275L18.7908 27.0094C18.4927 27.2883 18.4927 27.7401 18.7908 28.0188L21.4448 30.5007C21.5939 30.64 21.7891 30.7097 21.9844 30.7097C22.1797 30.7097 22.3751 30.64 22.5241 30.5007C22.8221 30.222 22.8221 29.77 22.5241 29.4913L21.1604 28.216C26.4704 27.9702 30.7096 23.8531 30.7096 18.8276V18.8276Z" fill="url(#paint4_linear_209_176)"/>
<path d="M24.0344 11.2208C23.9636 11.1486 23.86 11.1123 23.7552 11.1123H22.9738C22.8691 11.1123 22.7655 11.1486 22.6946 11.2208C22.5849 11.3325 22.569 11.4939 22.6468 11.6201L23.0645 12.2089L22.869 13.7515L23.2541 14.7094C23.2916 14.8057 23.4373 14.8057 23.4749 14.7094L23.8599 13.7515L23.6644 12.2089L24.0821 11.6201C24.16 11.4939 24.1441 11.3325 24.0344 11.2208V11.2208Z" fill="url(#paint5_linear_209_176)"/>
<defs>
<linearGradient id="paint0_linear_209_176" x1="9.73302" y1="16.2148" x2="9.73302" y2="26.2651" gradientUnits="userSpaceOnUse">
<stop stop-color="#FF3535"/>
<stop offset="1" stop-color="#FA3333"/>
</linearGradient>
<linearGradient id="paint1_linear_209_176" x1="10.5467" y1="6.27498" x2="10.5467" y2="17.3218" gradientUnits="userSpaceOnUse">
<stop stop-color="#FF3535"/>
<stop offset="1" stop-color="#FA3333"/>
</linearGradient>
<linearGradient id="paint2_linear_209_176" x1="23.3645" y1="4.3871" x2="23.3645" y2="10.1353" gradientUnits="userSpaceOnUse">
<stop stop-color="#FF3535"/>
<stop offset="1" stop-color="#FA3333"/>
</linearGradient>
<linearGradient id="paint3_linear_209_176" x1="23.3639" y1="11.2634" x2="23.3639" y2="18.9515" gradientUnits="userSpaceOnUse">
<stop stop-color="#FF3535"/>
<stop offset="1" stop-color="#FA3333"/>
</linearGradient>
<linearGradient id="paint4_linear_209_176" x1="24.6384" y1="18.8276" x2="24.6384" y2="30.7097" gradientUnits="userSpaceOnUse">
<stop stop-color="#FF3535"/>
<stop offset="1" stop-color="#FA3333"/>
</linearGradient>
<linearGradient id="paint5_linear_209_176" x1="23.3645" y1="11.1123" x2="23.3645" y2="14.7816" gradientUnits="userSpaceOnUse">
<stop stop-color="#FF3535"/>
<stop offset="1" stop-color="#FA3333"/>
</linearGradient>
</defs>
</svg>
