<svg width="34" height="34" viewBox="0 0 34 34" fill="none" xmlns="http://www.w3.org/2000/svg">
<path d="M31.9967 6.23901H2.00334C0.896949 6.23901 0 7.13596 0 8.24236V25.7575C0 26.864 0.896949 27.7609 2.00334 27.7609H31.9966C33.1031 27.7609 33.9999 26.8639 33.9999 25.7575V8.24236C34 7.13596 33.1031 6.23901 31.9967 6.23901ZM5.15153 11.1616C5.15153 10.2132 5.92038 9.44438 6.86873 9.44438C7.81708 9.44438 8.58593 10.2132 8.58593 11.1616V19.2932C8.07513 19.0153 7.49003 18.8575 6.86873 18.8575C6.24743 18.8575 5.66233 19.0154 5.15153 19.2932V11.1616ZM6.86866 24.3524C5.82715 24.3524 4.9798 23.5051 4.9798 22.4636C4.9798 21.4221 5.82715 20.5747 6.86866 20.5747C7.91018 20.5747 8.75752 21.4221 8.75752 22.4636C8.75759 23.505 7.91018 24.3524 6.86866 24.3524ZM17.7441 22.8383C17.7441 23.7867 16.9752 24.5555 16.0269 24.5555C15.0785 24.5555 14.3097 23.7867 14.3097 22.8383V14.8718C14.8205 15.1497 15.4056 15.3075 16.0269 15.3075C16.6482 15.3075 17.2333 15.1495 17.7441 14.8718V22.8383ZM16.0269 13.5903C14.9854 13.5903 14.1381 12.743 14.1381 11.7015C14.1381 10.6599 14.9854 9.8126 16.0269 9.8126C17.0685 9.8126 17.9158 10.6599 17.9158 11.7015C17.9158 12.743 17.0685 13.5903 16.0269 13.5903ZM26.9024 22.8383C26.9024 23.7867 26.1335 24.5555 25.1852 24.5555C24.2368 24.5555 23.468 23.7867 23.468 22.8383V14.8718C23.9788 15.1497 24.5639 15.3075 25.1852 15.3075C25.8065 15.3075 26.3916 15.1495 26.9024 14.8718V22.8383ZM25.1852 13.5903C24.1437 13.5903 23.2963 12.743 23.2963 11.7015C23.2963 10.6599 24.1437 9.8126 25.1852 9.8126C26.2267 9.8126 27.074 10.6599 27.074 11.7015C27.074 12.743 26.2267 13.5903 25.1852 13.5903Z" fill="url(#paint0_linear_39_761)"/>
<defs>
<linearGradient id="paint0_linear_39_761" x1="4.8267e-07" y1="17.7083" x2="33.2917" y2="17.7083" gradientUnits="userSpaceOnUse">
<stop stop-color="#FF3030"/>
<stop offset="1" stop-color="#CD3E3E"/>
</linearGradient>
</defs>
</svg>
