<svg width="34" height="34" viewBox="0 0 34 34" fill="none" xmlns="http://www.w3.org/2000/svg">
<path d="M30.8137 26.1945C30.8137 26.4291 30.6236 26.6199 30.3877 26.6199C30.1531 26.6199 29.963 26.4291 29.963 26.1945V24.1198H26.9641C24.7277 24.1198 22.9077 22.2096 22.9077 19.8601C22.9077 19.1891 23.068 18.5633 23.333 17.9964C23.9929 16.5822 25.3661 15.5997 26.962 15.5997H29.1588H29.9582V13.5257C29.9582 13.2905 30.1504 13.0997 30.3842 13.0997C30.618 13.0997 30.8089 13.2905 30.8089 13.5257V15.5997H32.9391V9.71632C32.9391 8.30497 31.7956 7.16007 30.3828 7.16007H29.6008V2.71718C29.6008 2.3293 29.4253 1.96432 29.1234 1.72146C28.8216 1.47791 28.4268 1.38701 28.0479 1.46958L1.68335 7.2704C1.38776 7.33493 1.13171 7.50632 0.949225 7.74363C0.374694 8.2113 0 8.91628 0 9.71632V30.0046C0 31.4153 1.1442 32.5602 2.55555 32.5602H30.3842C31.7962 32.5602 32.9404 31.4166 32.9404 30.0046V24.1198H30.8116V26.1945H30.8137V26.1945ZM29.1102 9.29097H29.6036H30.3877C30.6236 9.29097 30.8137 9.48109 30.8137 9.71701V10.9951C30.8137 11.2304 30.6236 11.4205 30.3877 11.4205C30.1531 11.4205 29.963 11.2304 29.963 10.9951V10.1431H29.6036H29.1102C28.8743 10.1431 28.6842 9.95224 28.6842 9.71701C28.6842 9.48109 28.8729 9.29097 29.1102 9.29097ZM21.1112 9.71701C21.1112 9.95224 20.9211 10.1431 20.6866 10.1431H17.8785C17.6425 10.1431 17.4531 9.95224 17.4531 9.71701C17.4531 9.48109 17.6425 9.29097 17.8785 9.29097H20.6866C20.9204 9.29097 21.1112 9.48109 21.1112 9.71701ZM26.3007 10.1437H23.4926C23.2581 10.1437 23.0673 9.95293 23.0673 9.71771C23.0673 9.48179 23.2581 9.29167 23.4926 9.29167H26.3007C26.536 9.29167 26.7261 9.48179 26.7261 9.71771C26.7282 9.95224 26.538 10.1437 26.3007 10.1437ZM6.64457 9.29097H9.45269C9.68792 9.29097 9.87874 9.48109 9.87874 9.71701C9.87874 9.95224 9.68792 10.1431 9.45269 10.1431H6.64457C6.41004 10.1431 6.21853 9.95224 6.21853 9.71701C6.21853 9.48109 6.40865 9.29097 6.64457 9.29097ZM2.13229 13.5278C2.13229 13.3467 2.24608 13.194 2.40567 13.133C2.45286 13.1149 2.5042 13.1017 2.55833 13.1017C2.79355 13.1017 2.98437 13.2926 2.98437 13.5278V14.6026V16.0611C2.98437 16.2964 2.79355 16.4872 2.55833 16.4872C2.3238 16.4872 2.13229 16.2964 2.13229 16.0611V13.5278V13.5278ZM2.13229 18.5938C2.13229 18.3593 2.3231 18.1691 2.55833 18.1691C2.79355 18.1691 2.98437 18.3593 2.98437 18.5938V21.1278C2.98437 21.3624 2.79355 21.5539 2.55833 21.5539C2.3238 21.5539 2.13229 21.3624 2.13229 21.1278V18.5938V18.5938ZM2.13229 23.6612C2.13229 23.4253 2.3231 23.2358 2.55833 23.2358C2.79355 23.2358 2.98437 23.4253 2.98437 23.6612V26.1931C2.98437 26.4291 2.79355 26.6192 2.55833 26.6192C2.3238 26.6192 2.13229 26.4291 2.13229 26.1931V23.6612V23.6612ZM3.83576 30.432H2.55833C2.3238 30.432 2.13229 30.2405 2.13229 30.006V28.7279C2.13229 28.4933 2.3231 28.3025 2.55833 28.3025C2.79355 28.3025 2.98437 28.4933 2.98437 28.7279V29.58H3.83645C4.07098 29.58 4.26249 29.7715 4.26249 30.006C4.26249 30.2405 4.07237 30.432 3.83576 30.432ZM3.96343 10.1167C3.92249 10.1306 3.88086 10.1424 3.83576 10.1424H2.98437V10.9944C2.98437 11.2297 2.79355 11.4205 2.55833 11.4205C2.3238 11.4205 2.13229 11.2297 2.13229 10.9944V9.71701C2.13229 9.48109 2.3231 9.29097 2.55833 9.29097H3.83645C3.9218 9.29097 3.99604 9.3222 4.06335 9.36452C4.18061 9.44016 4.26249 9.56575 4.26249 9.71701C4.2618 9.90644 4.13551 10.0612 3.96343 10.1167ZM9.45339 30.432H6.64457C6.41004 30.432 6.21853 30.2405 6.21853 30.006C6.21853 29.7715 6.40935 29.58 6.64457 29.58H9.45339C9.68861 29.58 9.87943 29.7715 9.87943 30.006C9.87943 30.2405 9.68861 30.432 9.45339 30.432ZM15.0689 30.432H12.2608C12.0256 30.432 11.8348 30.2405 11.8348 30.006C11.8348 29.7715 12.0256 29.58 12.2608 29.58H15.0682C15.3028 29.58 15.4943 29.7715 15.4943 30.006C15.4943 30.2405 15.3049 30.432 15.0689 30.432ZM15.0689 10.1437H12.2601C12.0256 10.1437 11.8341 9.95293 11.8341 9.71771C11.8341 9.48179 12.0249 9.29167 12.2601 9.29167H15.0689C15.3035 9.29167 15.495 9.48179 15.495 9.71771C15.495 9.95224 15.3049 10.1437 15.0689 10.1437ZM20.6859 30.432H17.8778C17.6418 30.432 17.4524 30.2405 17.4524 30.006C17.4524 29.7715 17.6418 29.58 17.8778 29.58H20.6859C20.9204 29.58 21.1119 29.7715 21.1119 30.006C21.1119 30.2405 20.9204 30.432 20.6859 30.432ZM26.3007 30.432H23.4926C23.2581 30.432 23.068 30.2405 23.068 30.006C23.068 29.7715 23.2581 29.58 23.4926 29.58H26.3007C26.536 29.58 26.7261 29.7715 26.7261 30.006C26.7261 30.2405 26.538 30.432 26.3007 30.432ZM30.8137 30.006C30.8137 30.2405 30.6236 30.432 30.3877 30.432H29.1102C28.8743 30.432 28.6842 30.2405 28.6842 30.006C28.6842 29.7715 28.8743 29.58 29.1102 29.58H29.963V28.7279C29.963 28.4933 30.1531 28.3025 30.3877 28.3025C30.6236 28.3025 30.8137 28.4933 30.8137 28.7279V30.006ZM32.9446 16.4532H30.5556H30.2232H27.2278H26.9634C26.078 16.4532 25.2745 16.839 24.6937 17.4572C24.1157 18.0741 23.7584 18.9234 23.7584 19.8601C23.7584 21.7405 25.1947 23.2677 26.962 23.2677H30.2211H30.5528H32.9425H34V16.4532H32.9446V16.4532ZM27.216 20.8718C26.6865 20.8718 26.2577 20.4194 26.2577 19.8601C26.2577 19.3002 26.6858 18.8477 27.216 18.8477C27.7461 18.8477 28.1742 19.3008 28.1742 19.8601C28.1742 20.4194 27.744 20.8718 27.216 20.8718Z" fill="url(#paint0_linear_209_163)"/>
<defs>
<linearGradient id="paint0_linear_209_163" x1="3.54167" y1="20.5416" x2="31.875" y2="22.6666" gradientUnits="userSpaceOnUse">
<stop stop-color="#09C740"/>
<stop offset="1" stop-color="#82E19D"/>
</linearGradient>
</defs>
</svg>
