<svg width="67" height="67" viewBox="0 0 67 67" fill="none" xmlns="http://www.w3.org/2000/svg">
<g filter="url(#filter0_d_42_986)">
<rect width="47" height="47" transform="matrix(-1 0 0 1 57 9)" fill="white"/>
</g>
<g clip-path="url(#clip0_42_986)">
<path d="M19.2768 29.3488L31.8495 21.9919C32.118 21.8348 32.4497 21.8334 32.7198 21.9879C32.9896 22.1426 33.1562 22.4297 33.1565 22.7407L33.159 26.0626C33.1741 26.0663 33.1859 26.0693 33.194 26.0715C33.5081 26.1591 33.8421 26.2556 34.2446 26.3752C35.5501 26.763 36.8911 27.2659 38.4649 27.9577C39.8307 28.558 41.1667 29.3328 42.4363 30.2606C43.3434 30.9235 44.1971 31.688 44.9731 32.5328C47.0849 34.8313 48.2419 37.8833 48.1475 40.9065C48.131 41.4362 48.0714 41.9444 48.0153 42.3717C47.9596 42.7967 47.6022 43.1174 47.1738 43.127C47.1673 43.1271 47.1606 43.1272 47.1542 43.1272C46.7342 43.1272 46.3728 42.8257 46.2994 42.41C46.0657 41.0889 45.693 40.0037 45.1599 39.0922C44.4936 37.9531 43.5881 36.9968 42.5414 36.3265C41.6419 35.7504 40.6917 35.3082 39.6362 34.9746C38.4052 34.5854 37.0478 34.3415 35.4865 34.2288C34.8566 34.1833 34.1779 34.1604 33.3505 34.1566C33.3254 34.1566 33.2718 34.1571 33.2021 34.158L33.1998 37.2906C33.1995 37.5998 33.0349 37.8856 32.7675 38.0409C32.5 38.1962 32.1701 38.1974 31.9014 38.0442L19.2853 30.8527C19.0158 30.6991 18.8488 30.4135 18.8471 30.1032C18.8453 29.7931 19.0091 29.5056 19.2768 29.3488Z" fill="black"/>
</g>
<defs>
<filter id="filter0_d_42_986" x="0" y="0" width="67" height="67" filterUnits="userSpaceOnUse" color-interpolation-filters="sRGB">
<feFlood flood-opacity="0" result="BackgroundImageFix"/>
<feColorMatrix in="SourceAlpha" type="matrix" values="0 0 0 0 0 0 0 0 0 0 0 0 0 0 0 0 0 0 127 0" result="hardAlpha"/>
<feOffset dy="1"/>
<feGaussianBlur stdDeviation="5"/>
<feComposite in2="hardAlpha" operator="out"/>
<feColorMatrix type="matrix" values="0 0 0 0 0 0 0 0 0 0 0 0 0 0 0 0 0 0 0.1 0"/>
<feBlend mode="normal" in2="BackgroundImageFix" result="effect1_dropShadow_42_986"/>
<feBlend mode="normal" in="SourceGraphic" in2="effect1_dropShadow_42_986" result="shape"/>
</filter>
<clipPath id="clip0_42_986">
<rect width="29.3059" height="29.3059" fill="white" transform="translate(18.847 17.8472)"/>
</clipPath>
</defs>
</svg>
