<svg width="29" height="29" viewBox="0 0 29 29" fill="none" xmlns="http://www.w3.org/2000/svg">
<g clip-path="url(#clip0_47_320)">
<path d="M22.4859 6.42676H21.482C20.184 6.42676 19.1309 7.47949 19.1309 8.77787V8.95034L22.099 6.84228C22.1017 6.84036 22.1051 6.84002 22.108 6.8381C22.1051 6.84036 22.1024 6.84087 22.0999 6.84307L18.1802 10.4469L14.1611 12.1586C13.5675 12.4109 13.291 13.0969 13.5435 13.6905C13.7333 14.1348 14.1649 14.4013 14.6192 14.4013C14.7718 14.4013 14.9269 14.3711 15.0754 14.3072L19.2797 12.5172C19.4029 12.4652 19.515 12.3926 19.6129 12.3022L23.6801 8.562C23.6835 8.55889 23.6846 8.5542 23.6881 8.55109C23.6846 8.55471 23.6836 8.55923 23.6807 8.5629L20.0871 12.8182C19.9831 12.9414 19.8565 13.0331 19.7176 13.0928L19.5543 13.1622L19.1309 13.3423L19.1326 27.0388C19.1326 27.8129 19.7606 28.4403 20.5341 28.4403C20.8535 28.4403 21.1455 28.3289 21.3806 28.1483C21.2009 27.8171 21.0888 27.443 21.0888 27.0388V18.6875H22.0232V27.0388C22.0232 27.8128 22.6509 28.4402 23.4247 28.4402C24.1982 28.4402 24.8258 27.8128 24.8258 27.0388C24.8258 27.0388 24.8368 15.2565 24.8368 8.77781C24.8369 7.47949 23.7841 6.42676 22.4859 6.42676Z" fill="#797979"/>
<path d="M21.9848 5.90105C23.4938 5.90105 24.7155 4.67902 24.7155 3.17087C24.7156 1.66222 23.4939 0.440186 21.9848 0.440186C20.4769 0.440186 19.2542 1.66222 19.2542 3.17087C19.2542 4.67902 20.4769 5.90105 21.9848 5.90105Z" fill="#797979"/>
<path d="M7.1353 5.90105C8.64327 5.90105 9.86604 4.67902 9.86604 3.17087C9.86604 1.66222 8.64327 0.440186 7.1353 0.440186C5.62636 0.440186 4.40466 1.66222 4.40466 3.17087C4.40466 4.67902 5.62636 5.90105 7.1353 5.90105Z" fill="#797979"/>
<path d="M10.5675 10.2631L7.451 7.25689L9.98921 9.21577V8.77787C9.98921 7.47949 8.93609 6.42676 7.6381 6.42676H6.63431C5.33588 6.42676 4.2832 7.47949 4.2832 8.77787C4.2832 15.4638 4.29428 27.0388 4.29428 27.0388C4.29428 27.8129 4.92194 28.4403 5.69534 28.4403C6.46913 28.4403 7.09679 27.8129 7.09679 27.0388V18.6875H8.03125V27.0388C8.03125 27.443 7.91879 27.817 7.73909 28.1482C7.97468 28.3288 8.26644 28.4402 8.58601 28.4402C9.35941 28.4402 9.98746 27.8128 9.98746 27.0388L9.98921 13.326L9.05657 12.6627L8.75848 12.4509C8.74113 12.4383 8.72446 12.4227 8.71095 12.4067L5.82865 8.9383L9.05476 12.0499C9.12794 12.1197 9.2092 12.1804 9.2977 12.2293L13.1477 14.3741C13.0509 14.2502 12.9645 14.1165 12.8996 13.9651C12.5756 13.2036 12.8011 12.3543 13.3902 11.8361L10.5675 10.2631Z" fill="#797979"/>
</g>
<defs>
<clipPath id="clip0_47_320">
<rect width="28" height="28" fill="white" transform="translate(0.559998 0.440186)"/>
</clipPath>
</defs>
</svg>
