<svg width="34" height="34" viewBox="0 0 34 34" fill="none" xmlns="http://www.w3.org/2000/svg">
<g clip-path="url(#clip0_209_170)">
<path d="M24.7895 0C19.7027 0 15.5789 4.12383 15.5789 9.21055C15.5789 10.273 15.7648 11.2824 16.0969 12.232L1.41445 26.9145L0 34H8.5V31.1645L9.91445 29.75L11.3289 31.1645L14.1645 28.3289L12.75 26.9145L15.5855 24.0789L17 25.5L19.8355 22.6645L18.4145 21.25L21.768 17.8965C22.7176 18.2285 23.7336 18.4145 24.7895 18.4145C29.8762 18.4145 34 14.2906 34 9.20391C34 4.11719 29.8762 0 24.7895 0ZM26.9145 9.91445C25.3539 9.91445 24.0789 8.64609 24.0789 7.07891C24.0789 5.51172 25.3539 4.25 26.9145 4.25C28.475 4.25 29.75 5.51836 29.75 7.08555C29.75 8.65273 28.4816 9.91445 26.9145 9.91445Z" fill="url(#paint0_linear_209_170)"/>
</g>
<defs>
<linearGradient id="paint0_linear_209_170" x1="2.125" y1="17" x2="28.3333" y2="19.125" gradientUnits="userSpaceOnUse">
<stop stop-color="#1ACB4E"/>
<stop offset="1" stop-color="#7CDF99"/>
</linearGradient>
<clipPath id="clip0_209_170">
<rect width="34" height="34" fill="white"/>
</clipPath>
</defs>
</svg>
