<svg width="31" height="31" viewBox="0 0 31 31" fill="none" xmlns="http://www.w3.org/2000/svg">
<g clip-path="url(#clip0_42_988)">
<path d="M1.27681 12.3488L13.8495 4.99193C14.118 4.83477 14.4497 4.83343 14.7198 4.9879C14.9896 5.14259 15.1562 5.42968 15.1565 5.74074L15.159 9.0626C15.1741 9.06628 15.1859 9.06925 15.194 9.07152C15.5081 9.15915 15.8421 9.25562 16.2446 9.37523C17.5501 9.76303 18.8911 10.2659 20.4649 10.9577C21.8307 11.558 23.1667 12.3328 24.4363 13.2606C25.3434 13.9235 26.1971 14.688 26.9731 15.5328C29.0849 17.8313 30.2419 20.8833 30.1475 23.9065C30.131 24.4362 30.0714 24.9444 30.0153 25.3717C29.9596 25.7967 29.6022 26.1174 29.1738 26.127C29.1673 26.1271 29.1606 26.1272 29.1542 26.1272C28.7342 26.1272 28.3728 25.8257 28.2994 25.41C28.0657 24.0889 27.693 23.0037 27.1599 22.0922C26.4936 20.9531 25.5881 19.9968 24.5414 19.3265C23.6419 18.7504 22.6917 18.3082 21.6362 17.9746C20.4052 17.5854 19.0478 17.3415 17.4865 17.2288C16.8566 17.1833 16.1779 17.1604 15.3505 17.1566C15.3254 17.1566 15.2718 17.1571 15.2021 17.158L15.1998 20.2906C15.1995 20.5998 15.0349 20.8856 14.7675 21.0409C14.5 21.1962 14.1701 21.1974 13.9014 21.0442L1.2853 13.8527C1.01582 13.6991 0.848758 13.4135 0.84706 13.1032C0.845292 12.7931 1.0091 12.5056 1.27681 12.3488Z" fill="black"/>
</g>
<defs>
<clipPath id="clip0_42_988">
<rect width="29.3059" height="29.3059" fill="white" transform="translate(0.847046 0.847168)"/>
</clipPath>
</defs>
</svg>
