<svg width="24" height="24" viewBox="0 0 24 24" fill="none" xmlns="http://www.w3.org/2000/svg">
<g clip-path="url(#clip0_50_419)">
<path d="M5.58661 7.72119H0.768566C0.554734 7.72119 0.38147 7.89453 0.38147 8.10829V23.5866C0.38147 23.8004 0.554734 23.9737 0.768566 23.9737H5.58661C5.80044 23.9737 5.9737 23.8004 5.9737 23.5866V8.10829C5.9737 7.89453 5.80044 7.72119 5.58661 7.72119Z" fill="#02C63B"/>
<path d="M3.1793 0.0263672C1.42622 0.0263672 0 1.45104 0 3.20219C0 4.95411 1.42622 6.37932 3.1793 6.37932C4.93099 6.37932 6.35605 4.95403 6.35605 3.20219C6.35613 1.45104 4.93099 0.0263672 3.1793 0.0263672Z" fill="#02C63B"/>
<path d="M17.8416 7.33643C15.9065 7.33643 14.476 8.1683 13.6084 9.11351V8.10822C13.6084 7.89446 13.4351 7.72112 13.2213 7.72112H8.60719C8.39336 7.72112 8.22009 7.89446 8.22009 8.10822V23.5865C8.22009 23.8003 8.39336 23.9736 8.60719 23.9736H13.4147C13.6285 23.9736 13.8018 23.8003 13.8018 23.5865V15.9283C13.8018 13.3477 14.5028 12.3424 16.3017 12.3424C18.2608 12.3424 18.4165 13.9541 18.4165 16.0611V23.5866C18.4165 23.8004 18.5898 23.9737 18.8036 23.9737H23.6129C23.8268 23.9737 24 23.8004 24 23.5866V15.0965C24 11.2592 23.2683 7.33643 17.8416 7.33643Z" fill="#02C63B"/>
</g>
<defs>
<clipPath id="clip0_50_419">
<rect width="24" height="24" fill="white"/>
</clipPath>
</defs>
</svg>
