<svg width="19" height="29" viewBox="0 0 19 29" fill="none" xmlns="http://www.w3.org/2000/svg">
<path fill-rule="evenodd" clip-rule="evenodd" d="M18.32 9.73383C18.32 4.859 14.5719 0.773193 9.66029 0.773193C4.74872 0.773193 0.986694 4.86178 0.986694 9.73799C0.986694 11.3465 1.21133 12.5599 1.97331 13.9465H1.95875L9.37395 28.2437C9.65267 28.6258 9.94525 28.2216 9.94525 28.2216C9.69496 28.5967 17.3604 13.9465 17.3604 13.9465H17.3542C18.1086 12.5599 18.32 11.3437 18.32 9.73383ZM5.66739 9.45927C5.66739 7.15948 7.45549 5.2965 9.66029 5.2965C11.8644 5.2965 13.6539 7.15948 13.6539 9.45927C13.6539 11.7591 11.8644 13.6227 9.66029 13.6227C7.45549 13.6227 5.66739 11.7597 5.66739 9.45927Z" fill="#797979"/>
</svg>
