<svg width="34" height="32" viewBox="0 0 34 32" fill="none" xmlns="http://www.w3.org/2000/svg">
<path d="M20.0041 3.69873C15.8202 3.69873 12.4293 7.08987 12.4293 11.2732H27.579C27.5789 7.08924 24.1874 3.69873 20.0041 3.69873Z" fill="url(#paint0_linear_209_229)"/>
<path d="M20.3739 2.88796C20.7522 2.73958 21.0196 2.37402 21.0196 1.9427C21.0196 1.38264 20.5655 0.927246 20.0041 0.927246C19.4429 0.927246 18.9877 1.38264 18.9877 1.9427C18.9877 2.37415 19.2562 2.73895 19.6347 2.88796V3.69865H20.0041H20.3739V2.88796Z" fill="url(#paint1_linear_209_229)"/>
<path d="M4.2268 6.40814L6.10059 17.0746L5.56891 22.7506C5.49846 22.9676 5.4512 23.1947 5.4512 23.4347C5.4512 24.3478 5.99884 25.1302 6.78241 25.4797V26.6093C6.12061 26.9441 5.66141 27.6228 5.66141 28.4153C5.66141 29.5354 6.56967 30.4437 7.69067 30.4437C8.81155 30.4437 9.71993 29.5354 9.71993 28.4153C9.71993 27.6228 9.26124 26.9434 8.59893 26.6093V25.4826C9.07625 25.2691 9.46436 24.8919 9.69624 24.424C10.0626 25.1638 10.8177 25.6772 11.6989 25.6772C12.5805 25.6772 13.335 25.1638 13.7013 24.424C14.0676 25.1638 14.8228 25.6772 15.7046 25.6772C16.5864 25.6772 17.3409 25.1638 17.7074 24.424C18.0734 25.1638 18.828 25.6772 19.7103 25.6772C20.5914 25.6772 21.346 25.1638 21.7127 24.424C22.0794 25.1638 22.8339 25.6772 23.7151 25.6772C24.5968 25.6772 25.3514 25.1638 25.7186 24.424C26.0847 25.1638 26.8392 25.6772 27.721 25.6772C28.6027 25.6772 29.3567 25.1638 29.7234 24.424C29.9611 24.9024 30.3609 25.2833 30.8523 25.495V27.2384C30.1905 27.573 29.7316 28.252 29.7316 29.0444C29.7316 30.1644 30.6399 31.0728 31.7607 31.0728C32.8813 31.0728 33.7897 30.1644 33.7897 29.0444C33.7897 28.2513 33.3314 27.5725 32.669 27.2384V25.4631C33.4347 25.1065 33.9682 24.3359 33.9682 23.4352H34.0001L33.9482 23.233C33.9245 22.9745 33.8642 22.729 33.7601 22.5038L32.7394 15.1699H32.7334C32.7334 14.5517 32.232 14.0502 31.614 14.0502H28.5691C28.9772 14.0502 29.3083 13.7196 29.3083 13.3107V12.5715C29.3083 12.1631 28.9772 11.8325 28.5691 11.8325H11.4403C11.0323 11.8325 10.7012 12.1631 10.7012 12.5715V13.3107C10.7012 13.7196 11.0323 14.0502 11.4403 14.0502H8.0281L6.43662 4.98798C6.33462 4.40853 5.83171 3.98621 5.24352 3.98621H1.2111C0.542573 3.98646 0 4.52903 0 5.19755C0 5.86608 0.542573 6.40865 1.2111 6.40865H4.2268V6.40814V6.40814Z" fill="url(#paint2_linear_209_229)"/>
<defs>
<linearGradient id="paint0_linear_209_229" x1="20.0042" y1="3.69873" x2="20.0042" y2="11.2732" gradientUnits="userSpaceOnUse">
<stop stop-color="#941AA8"/>
<stop offset="1" stop-color="#CA22E6"/>
</linearGradient>
<linearGradient id="paint1_linear_209_229" x1="20.0036" y1="0.927246" x2="20.0036" y2="3.69865" gradientUnits="userSpaceOnUse">
<stop stop-color="#941AA8"/>
<stop offset="1" stop-color="#CA22E6"/>
</linearGradient>
<linearGradient id="paint2_linear_209_229" x1="17.0001" y1="3.98621" x2="17.0001" y2="31.0728" gradientUnits="userSpaceOnUse">
<stop stop-color="#941AA8"/>
<stop offset="1" stop-color="#CA22E6"/>
</linearGradient>
</defs>
</svg>
