<svg width="34" height="34" viewBox="0 0 34 34" fill="none" xmlns="http://www.w3.org/2000/svg">
<path d="M17 -8.52807e-05C16.4262 -8.52807e-05 15.8596 0.0853766 15.317 0.221269C14.9997 0.301707 14.6937 0.407348 14.3877 0.531165C14.2701 0.579346 14.1498 0.609563 14.0338 0.663977C13.9856 0.686403 13.9488 0.729059 13.901 0.752519C13.6132 0.895007 13.3314 1.05999 13.06 1.2395C13.0217 1.26415 12.9649 1.25847 12.9271 1.28377C12.8473 1.33851 12.784 1.40304 12.7058 1.46078C12.4835 1.6203 12.2502 1.76678 12.0417 1.94783C11.8515 2.11882 11.6883 2.33373 11.5104 2.52328C10.9082 3.14081 10.3861 3.79417 9.96086 4.55988C9.23071 5.8397 8.68557 7.28059 8.45579 8.76554C8.34487 8.74216 8.24315 8.73381 8.14582 8.76554C7.40193 9.00779 7.21862 10.4209 7.70312 11.9087C7.98744 12.7818 8.46047 13.4692 8.9427 13.8566C9.59054 16.3752 10.9624 18.4747 12.75 19.7893V21.2499L11.3333 22.6666L8.49999 24.0832C6.20882 25.218 3.92642 26.357 1.63794 27.4917C0.36984 28.2567 -0.120851 29.7584 -8.93303e-06 31.1666C0.0590151 32.0534 -0.261356 33.1882 0.619783 33.7789C1.45689 34.2096 2.45564 33.9291 3.36457 33.9999C6.02309 33.9985 8.67481 33.9999 11.3333 33.9999C15.1144 34.0013 18.8856 33.9999 22.6667 33.9999C26.0199 33.9999 29.3632 34.0056 32.7165 33.9999C33.8045 33.9234 34.1062 32.7745 34 31.8749C34.0198 30.5546 34.0977 29.0756 33.0707 28.0669C32.232 27.2141 31.0392 26.8769 30.0163 26.2961C28.5132 25.5523 27.0017 24.827 25.5 24.0832L22.6667 22.6666L21.25 21.2499V19.7893C23.0378 18.4747 24.4092 16.3752 25.058 13.8566C25.5397 13.469 26.0128 12.7816 26.2962 11.9087C26.7807 10.4209 26.5979 9.00779 25.8542 8.76554C25.7564 8.73381 25.6558 8.74216 25.5439 8.76554C25.3144 7.28059 24.769 5.8397 24.0394 4.55988C23.6144 3.79417 23.0917 3.14081 22.4896 2.52328C22.3111 2.33373 22.1482 2.11882 21.9583 1.94783C21.9498 1.94004 21.9229 1.95562 21.9144 1.94783C21.3591 1.45214 20.7428 1.071 20.0997 0.752519C19.9367 0.672874 19.7781 0.598754 19.6123 0.531165C19.4933 0.482984 19.3786 0.44013 19.2582 0.398352C18.8969 0.273006 18.5272 0.152476 18.1503 0.0884564C18.122 0.0836326 18.0908 0.0929161 18.0625 0.0884564C17.7097 0.0330024 17.3612 -0.00398111 17 -8.52807e-05V-8.52807e-05Z" fill="url(#paint0_linear_209_189)"/>
<path d="M0 32.5833C0.0374269 33.0083 0.179222 33.4331 0.619792 33.7165C1.4569 34.1415 2.45565 33.8583 3.36458 33.9999H11.3333H22.6667H32.7165C33.5325 33.8583 33.9093 33.2916 34 32.5833H0Z" fill="url(#paint1_linear_209_189)"/>
<defs>
<linearGradient id="paint0_linear_209_189" x1="-7.08328" y1="15.5833" x2="29.7501" y2="17" gradientUnits="userSpaceOnUse">
<stop offset="0.246715" stop-color="#FA5252"/>
<stop offset="1" stop-color="#ED3939" stop-opacity="0.61"/>
</linearGradient>
<linearGradient id="paint1_linear_209_189" x1="-0.708333" y1="33.2916" x2="34" y2="33.9999" gradientUnits="userSpaceOnUse">
<stop offset="0.0860044" stop-color="#C84141"/>
<stop offset="1" stop-color="#D14545" stop-opacity="0.43"/>
</linearGradient>
</defs>
</svg>
