<svg width="49" height="74" viewBox="0 0 49 74" fill="none" xmlns="http://www.w3.org/2000/svg">
<path d="M30.3261 50.4095L18.4126 51.3813C18.215 48.5756 18.2362 46.1439 18.4759 44.0864C18.7443 41.9951 19.325 40.0822 20.2182 38.3476C21.1425 36.6105 22.4107 34.8609 24.0228 33.099C25.38 31.6715 26.5554 30.3214 27.5489 29.0489C28.5425 27.7764 29.3 26.4918 29.8213 25.1952C30.34 23.8673 30.5359 22.4248 30.4088 20.8674C30.2615 19.0609 29.8592 17.5888 29.202 16.4509C28.5734 15.2794 27.6887 14.4267 26.5477 13.8926C25.4379 13.3561 24.0732 13.1539 22.4536 13.286C21.1143 13.3953 19.8926 13.7928 18.7884 14.4786C17.6817 15.1332 16.8029 16.0828 16.1519 17.3274C15.5321 18.5694 15.2854 20.1572 15.4118 22.0908L1.86304 23.1961C1.6084 18.9214 2.3024 15.3218 3.94507 12.3973C5.61634 9.43911 7.98582 7.16079 11.0535 5.56233C14.1187 3.93272 17.629 2.95658 21.5847 2.6339C25.9452 2.27819 29.7412 2.68966 32.9727 3.86833C36.2017 5.01584 38.7534 6.89272 40.6277 9.49895C42.4996 12.074 43.5943 15.3082 43.9119 19.2016C44.1329 21.9113 43.8003 24.3684 42.9141 26.5727C42.0254 28.7459 40.7981 30.8056 39.2324 32.7519C37.6668 34.6981 35.9348 36.7206 34.0367 38.8194C32.3909 40.5527 31.3121 42.3181 30.8003 44.1157C30.3197 45.9107 30.1616 48.0086 30.3261 50.4095ZM18.1886 65.9321C18.026 63.9387 18.5766 62.232 19.8403 60.8121C21.1015 59.361 22.8845 58.5414 25.1894 58.3534C27.4631 58.1679 29.3398 58.689 30.8195 59.9165C32.3278 61.1103 33.1632 62.7039 33.3258 64.6973C33.4834 66.6283 32.916 68.3207 31.6236 69.7743C30.3624 71.2254 28.595 72.0437 26.3213 72.2292C24.0164 72.4172 22.1242 71.8975 20.6445 70.67C19.1648 69.4425 18.3461 67.8632 18.1886 65.9321Z" fill="#BA40E4"/>
</svg>
