<svg width="45" height="55" viewBox="0 0 45 55" fill="none" xmlns="http://www.w3.org/2000/svg">
<path d="M21.8533 36.9956L14.598 33.7C15.3924 32.0015 16.1929 30.5918 16.9995 29.4708C17.8337 28.3396 18.7921 27.4134 19.8747 26.6924C20.9763 25.9801 22.2822 25.372 23.7924 24.8681C25.0458 24.4764 26.1682 24.0709 27.1595 23.6517C28.1507 23.2325 29.0084 22.7296 29.7324 22.1432C30.465 21.5378 31.0467 20.761 31.4775 19.8125C31.9773 18.7124 32.2201 17.7244 32.2061 16.8485C32.2197 15.9623 31.9807 15.1787 31.4891 14.4978C31.0165 13.8255 30.287 13.2653 29.3007 12.8173C28.485 12.4468 27.6445 12.2823 26.7789 12.3239C25.922 12.3466 25.1022 12.6149 24.3196 13.1289C23.5559 13.6515 22.8975 14.4965 22.3443 15.6639L14.0932 11.916C15.3305 9.3432 16.9016 7.4712 18.8065 6.29999C20.739 5.11842 22.8579 4.55924 25.1631 4.62244C27.477 4.66667 29.8384 5.2359 32.2473 6.33013C34.9029 7.53637 36.9809 9.00655 38.4814 10.7407C39.9905 12.4559 40.8686 14.3764 41.1157 16.5022C41.3714 18.6091 40.9608 20.848 39.8838 23.2191C39.1342 24.8693 38.144 26.1929 36.9132 27.1898C35.691 28.1677 34.3084 28.9698 32.7654 29.5961C31.2225 30.2223 29.5579 30.8392 27.7718 31.4465C26.2512 31.9228 25.0505 32.6016 24.1697 33.4829C23.3078 34.3728 22.5357 35.5437 21.8533 36.9956ZM9.75088 42.104C10.3023 40.8901 11.1763 40.0743 12.3727 39.6568C13.5778 39.2202 14.8822 39.3208 16.2858 39.9583C17.6705 40.5873 18.5949 41.4992 19.059 42.6939C19.5507 43.8783 19.5208 45.0774 18.9694 46.2914C18.4352 47.4674 17.5561 48.2694 16.3321 48.6973C15.127 49.1339 13.8321 49.0376 12.4474 48.4087C11.0438 47.7711 10.1099 46.8549 9.64577 45.6602C9.18165 44.4655 9.21669 43.2801 9.75088 42.104Z" fill="#FF4C4C"/>
</svg>
