<svg width="43" height="43" viewBox="0 0 43 43" fill="none" xmlns="http://www.w3.org/2000/svg">
<g clip-path="url(#clip0_46_203)">
<path d="M26.875 22.8437L34.7897 22.8437C34.54 24.5069 33.9461 26.0996 33.0461 27.5202C32.146 28.9409 30.9596 30.1582 29.5625 31.0944L27.1572 32.7069L28.6353 34.9375L31.0406 33.325C33.0653 31.9758 34.7256 30.1476 35.8742 28.0028C37.0228 25.8579 37.6242 23.4627 37.625 21.0297L37.625 12.0938C37.625 11.381 37.3419 10.6974 36.8379 10.1934C36.3338 9.6894 35.6503 9.40625 34.9375 9.40625L26.875 9.40625C26.1622 9.40625 25.4787 9.6894 24.9747 10.1934C24.4706 10.6974 24.1875 11.381 24.1875 12.0937L24.1875 20.1562C24.1875 20.869 24.4706 21.5526 24.9747 22.0566C25.4787 22.5606 26.1622 22.8437 26.875 22.8437Z" fill="#595858"/>
<path d="M8.0625 22.8437L15.9772 22.8437C15.7275 24.5069 15.1336 26.0996 14.2336 27.5202C13.3335 28.9409 12.1471 30.1582 10.75 31.0944L8.34469 32.7069L9.80937 34.9375L12.2281 33.325C14.2528 31.9758 15.9131 30.1476 17.0617 28.0028C18.2103 25.8579 18.8117 23.4627 18.8125 21.0297L18.8125 12.0938C18.8125 11.381 18.5294 10.6974 18.0254 10.1934C17.5213 9.6894 16.8378 9.40625 16.125 9.40625L8.0625 9.40625C7.34973 9.40625 6.66616 9.6894 6.16215 10.1934C5.65815 10.6974 5.375 11.381 5.375 12.0937L5.375 20.1562C5.375 20.869 5.65815 21.5526 6.16215 22.0566C6.66616 22.5606 7.34973 22.8437 8.0625 22.8437Z" fill="#595858"/>
</g>
<defs>
<clipPath id="clip0_46_203">
<rect width="43" height="43" fill="white" transform="translate(43 43) rotate(-180)"/>
</clipPath>
</defs>
</svg>
