<svg width="34" height="34" viewBox="0 0 34 34" fill="none" xmlns="http://www.w3.org/2000/svg">
<path fill-rule="evenodd" clip-rule="evenodd" d="M34 17C34 26.3888 26.3888 34 17 34C7.61116 34 0 26.3888 0 17C0 7.61116 7.61116 0 17 0C26.3888 0 34 7.61116 34 17ZM26.5518 20.3554V13.2834C26.5518 12.8605 26.4519 12.4387 26.2788 12.0562C26.0046 11.4495 25.5828 10.8811 25.008 10.5411C23.8562 9.8644 22.7032 9.19079 21.5502 8.51712C20.545 7.92988 19.5398 7.3426 18.5353 6.75324C18.2898 6.60874 18.0114 6.52799 17.7384 6.45149C17.1247 6.33357 16.4914 6.36934 15.8949 6.55562C15.6432 6.64205 15.4137 6.77934 15.1843 6.91653C15.0923 6.97159 15.0002 7.02664 14.9068 7.07837C12.9263 8.23649 10.9448 9.39462 8.9632 10.5485C8.70387 10.7074 8.47414 10.9102 8.28426 11.1477C7.8157 11.7098 7.48632 12.4142 7.44701 13.158V20.7931C7.44701 21.3042 7.61807 21.7951 7.85182 22.2413C8.13764 22.7556 8.52651 23.2337 9.04714 23.5237C10.182 24.1851 11.3171 24.8476 12.4524 25.5102C13.4493 26.0921 14.4464 26.674 15.4434 27.2552C15.7584 27.4318 16.1049 27.5452 16.4634 27.5889C17.1498 27.6739 17.8808 27.6176 18.4991 27.2871C19.2605 26.8429 20.0212 26.3985 20.7817 25.9542C22.044 25.2168 23.3059 24.4796 24.5703 23.7437C24.6268 23.7103 24.6838 23.6776 24.7408 23.6449C24.9849 23.5051 25.2287 23.3654 25.4319 23.1699C25.9649 22.6663 26.3355 22.0153 26.4966 21.2999C26.5568 21.0385 26.5547 20.7687 26.5526 20.5014C26.5522 20.4526 26.5518 20.4039 26.5518 20.3554ZM15.3563 12.5226C15.9488 11.9581 16.4786 11.3311 16.9362 10.6526C16.97 10.664 17.0009 10.6826 17.0269 10.7069C17.053 10.7313 17.0735 10.761 17.0871 10.7939C17.4717 11.5101 18.0125 12.1284 18.5756 12.7075C18.9411 13.0645 19.211 13.532 19.3024 14.042C19.4224 14.6094 19.0888 15.2373 18.5523 15.4424C18.1581 15.5943 17.7023 15.5667 17.3251 15.3818C17.3107 15.3769 17.2944 15.3696 17.2772 15.3618C17.2087 15.331 17.1253 15.2935 17.0913 15.3733C17.1559 15.8188 17.3685 16.2145 17.5764 16.6016C17.5976 16.6409 17.6187 16.6802 17.6396 16.7195C17.6843 16.793 17.6257 16.849 17.5736 16.8988C17.5602 16.9116 17.5472 16.924 17.5365 16.9362C17.4441 17.0219 17.3571 17.1141 17.2701 17.2064C17.137 17.3475 17.0037 17.4889 16.8501 17.6077C16.7926 17.5894 16.7495 17.544 16.7082 17.5005C16.6946 17.4861 16.6811 17.4719 16.6674 17.459C16.566 17.3522 16.4619 17.2472 16.3575 17.142C16.2375 17.021 16.1171 16.8997 16.0001 16.7747L15.9895 16.7025C16.0385 16.6146 16.0901 16.5271 16.1419 16.4393C16.3462 16.0928 16.5537 15.7411 16.6164 15.3393C16.5381 15.3279 16.4581 15.3389 16.3858 15.3712C15.9842 15.5284 15.5273 15.5646 15.1236 15.4031C14.7262 15.2501 14.4202 14.8718 14.3724 14.4426C14.332 14.1238 14.4276 13.8072 14.57 13.5288C14.7474 13.1346 15.046 12.8169 15.3563 12.5226ZM11.9074 19.3162C12.0126 18.5948 12.4386 17.9159 13.0761 17.5695C13.378 17.3896 13.718 17.2834 14.0686 17.2596C14.4192 17.2358 14.7704 17.295 15.0938 17.4324C15.1348 17.4487 15.1511 17.4594 15.1758 17.4757C15.1818 17.4797 15.1883 17.484 15.1958 17.4887C15.4001 17.5756 15.5873 17.6983 15.7483 17.8511C15.9273 18.0053 16.09 18.1768 16.2528 18.3484C16.4331 18.5384 16.6135 18.7286 16.8161 18.8955C16.9846 18.7361 17.1471 18.57 17.3094 18.4041C17.5072 18.2018 17.7048 17.9998 17.9126 17.8107C18.4439 17.3198 19.2227 17.1753 19.9123 17.3156C20.9928 17.5291 21.795 18.6458 21.7185 19.7529C21.6834 20.4521 21.3349 21.1437 20.7623 21.5422C20.3734 21.8121 19.9133 22.0033 19.4352 21.9927C18.8083 22.0171 18.1931 21.7356 17.749 21.2967C17.3523 20.899 16.962 20.4951 16.5717 20.0912C16.1373 19.6416 15.7029 19.192 15.2596 18.751C15.0131 18.4854 14.6794 18.292 14.315 18.2686C14.0568 18.2569 13.7944 18.3207 13.5606 18.4376C13.1994 18.6309 12.9571 19.0166 12.8976 19.4236C12.8617 19.6396 12.8795 19.8612 12.9496 20.0688C13.0196 20.2764 13.1397 20.4634 13.2993 20.6136C13.7944 21.0927 14.6646 21.0885 15.148 20.5976C15.1768 20.5733 15.2052 20.5432 15.2341 20.5125C15.3291 20.4117 15.4307 20.3038 15.5773 20.3681C15.6521 20.4142 15.7127 20.4788 15.7732 20.5434C15.8089 20.5815 15.8446 20.6196 15.8833 20.6539C15.9041 20.6783 15.9278 20.7015 15.9518 20.7249C16.0196 20.791 16.089 20.8586 16.0968 20.9599C16.0968 21.0683 16.0204 21.1408 15.9469 21.2106C15.9275 21.229 15.9083 21.2473 15.8907 21.2659C15.6686 21.4986 15.4104 21.6962 15.1087 21.8174C14.5243 22.0458 13.8507 22.0511 13.2706 21.8014C12.3536 21.3871 11.7618 20.3288 11.9074 19.3162ZM19.4798 18.2846C19.092 18.2527 18.7031 18.4131 18.4279 18.6872C18.2808 18.8403 18.132 18.9901 17.9833 19.1399C17.8345 19.2897 17.6858 19.4395 17.5386 19.5925C17.5409 19.6033 17.5432 19.6211 17.5455 19.6389C17.5474 19.6543 17.5494 19.6698 17.5514 19.6807C17.7008 19.8202 17.8423 19.9676 17.9839 20.1151C18.1767 20.3159 18.3694 20.5168 18.582 20.6975C19.0782 21.1204 19.8687 21.0641 20.3298 20.6167C20.7782 20.179 20.8802 19.4151 20.5317 18.8838C20.3086 18.5215 19.9006 18.2962 19.4798 18.2846Z" fill="url(#paint0_linear_209_208)"/>
<defs>
<linearGradient id="paint0_linear_209_208" x1="0" y1="17" x2="34" y2="17" gradientUnits="userSpaceOnUse">
<stop stop-color="#0CC843"/>
<stop offset="1" stop-color="#29C857"/>
</linearGradient>
</defs>
</svg>
