<svg width="31" height="31" viewBox="0 0 31 31" fill="none" xmlns="http://www.w3.org/2000/svg">
<g clip-path="url(#clip0_42_993)">
<path d="M29.7232 12.3488L17.1505 4.99193C16.882 4.83477 16.5503 4.83343 16.2802 4.9879C16.0104 5.14259 15.8438 5.42968 15.8435 5.74074L15.841 9.0626C15.8259 9.06628 15.8141 9.06925 15.806 9.07151C15.4919 9.15915 15.1579 9.25562 14.7554 9.37523C13.4499 9.76303 12.1089 10.2659 10.5351 10.9577C9.16932 11.558 7.83325 12.3328 6.56373 13.2606C5.65656 13.9235 4.80294 14.688 4.0269 15.5328C1.91514 17.8313 0.758082 20.8833 0.852506 23.9065C0.868985 24.4362 0.928609 24.9444 0.984697 25.3717C1.04036 25.7967 1.39776 26.1174 1.82616 26.127C1.83274 26.1271 1.83939 26.1272 1.84575 26.1272C2.26581 26.1272 2.62717 25.8257 2.70059 25.41C2.93427 24.0889 3.30702 23.0037 3.8401 22.0922C4.50637 20.9531 5.41191 19.9968 6.45856 19.3265C7.35809 18.7504 8.30834 18.3082 9.36376 17.9746C10.5948 17.5854 11.9522 17.3415 13.5135 17.2288C14.1434 17.1833 14.8221 17.1604 15.6495 17.1566C15.6746 17.1566 15.7282 17.1571 15.7979 17.158L15.8002 20.2906C15.8005 20.5998 15.9651 20.8856 16.2325 21.0409C16.5 21.1962 16.8299 21.1974 17.0986 21.0442L29.7147 13.8527C29.9842 13.6991 30.1512 13.4135 30.1529 13.1032C30.1547 12.7931 29.9909 12.5056 29.7232 12.3488Z" fill="black"/>
</g>
<defs>
<clipPath id="clip0_42_993">
<rect width="29.3059" height="29.3059" fill="white" transform="matrix(-1 0 0 1 30.153 0.847168)"/>
</clipPath>
</defs>
</svg>
