<svg width="31" height="32" viewBox="0 0 31 32" fill="none" xmlns="http://www.w3.org/2000/svg">
<path d="M15.4982 5.32007C13.9775 5.32007 12.5054 5.60278 11.0822 6.16819C9.63937 6.7531 8.35743 7.6061 7.23635 8.72719C6.11527 9.84827 5.25252 11.14 4.64811 12.6022C4.0827 14.006 3.79999 15.4732 3.79999 17.0037C3.79999 18.5342 4.0827 20.0014 4.64811 21.4052C5.25252 22.8675 6.11527 24.1591 7.23635 25.2802C8.35743 26.4013 9.63937 27.2543 11.0822 27.8392C12.5054 28.4241 13.9775 28.7166 15.4982 28.7166C17.019 28.7166 18.491 28.4241 19.9143 27.8392C21.3571 27.2543 22.6391 26.4013 23.7601 25.2802C24.8812 24.1591 25.744 22.8675 26.3484 21.4052C26.9138 20.0014 27.1965 18.5342 27.1965 17.0037C27.1965 15.4732 26.9138 14.006 26.3484 12.6022C25.744 11.14 24.8812 9.84827 23.7601 8.72719C22.6391 7.6061 21.3571 6.7531 19.9143 6.16819C18.491 5.60278 17.019 5.32007 15.4982 5.32007ZM15.4982 7.51349C16.7656 7.51349 17.9792 7.75233 19.1393 8.23001C20.2994 8.70769 21.3279 9.39496 22.2247 10.2918C23.1216 11.1887 23.8089 12.2172 24.2866 13.3772C24.7642 14.5373 25.0031 15.751 25.0031 17.0183C25.0031 18.2856 24.7642 19.4945 24.2866 20.6448C23.8089 21.7951 23.1216 22.8187 22.2247 23.7156C21.3279 24.6124 20.2994 25.3046 19.1393 25.792C17.9792 26.2794 16.7656 26.5232 15.4982 26.5232C14.2309 26.5232 13.0172 26.2843 11.8572 25.8066C10.6971 25.329 9.66861 24.6417 8.77175 23.7448C7.56293 22.536 6.74405 21.103 6.31511 19.4457C5.88618 17.8275 5.88618 16.2092 6.31511 14.5909C6.74405 12.9337 7.56293 11.5006 8.77175 10.2918C9.66861 9.39496 10.6971 8.70769 11.8572 8.23001C13.0172 7.75233 14.2309 7.51349 15.4982 7.51349ZM14.5916 10.5258V12.6607C14.0067 12.7582 13.5485 12.9629 13.2171 13.2749C12.7102 13.7428 12.4567 14.396 12.4567 15.2343C12.4567 15.8972 12.6419 16.4334 13.0124 16.8428C13.3438 17.2133 13.8702 17.496 14.5916 17.691L14.6794 17.7495L15.4398 17.9249C15.9077 18.0419 16.2196 18.1687 16.3756 18.3051L16.4049 18.3636C16.5413 18.5001 16.6096 18.6805 16.6096 18.9047C16.6096 19.1289 16.5413 19.319 16.4049 19.475L16.2879 19.6212C16.0539 19.7577 15.7225 19.8259 15.2935 19.8259C15.0791 19.8259 14.8451 19.8064 14.5916 19.7674H14.5331C14.2797 19.7089 14.0945 19.6602 13.9775 19.6212C13.5095 19.4847 13.0221 19.2702 12.5152 18.9778V20.8203C13.0026 21.0152 13.4998 21.1712 14.0067 21.2882C14.1432 21.3077 14.3382 21.3369 14.5916 21.3759V23.4816H16.4049V21.3467C16.9898 21.2492 17.4382 21.0542 17.7502 20.7618C18.2571 20.2938 18.5105 19.5919 18.5105 18.6561C18.5105 17.9347 18.3351 17.3888 17.9841 17.0183C17.6722 16.6674 17.1457 16.3944 16.4049 16.1994L15.3228 15.9362C15.0108 15.8582 14.7671 15.7608 14.5916 15.6438L14.5039 15.6145C14.3479 15.4781 14.2699 15.3026 14.2699 15.0881C14.2699 14.7957 14.3772 14.5714 14.5916 14.4155L14.6209 14.3862C14.8353 14.2497 15.1765 14.1815 15.6445 14.1815C15.9174 14.1815 16.1709 14.2107 16.4049 14.2692L16.7851 14.357C17.2335 14.474 17.6429 14.6299 18.0134 14.8249V13.0117C17.5259 12.8557 17.0678 12.7485 16.6388 12.69L16.4049 12.6607V10.5258H14.5916ZM10.7312 11.7834C10.4193 12.6997 10.1853 13.5917 10.0293 14.4593C9.87333 15.327 9.79534 16.1702 9.79534 16.9891C9.79534 17.808 9.87333 18.6463 10.0293 19.5042C10.1853 20.3621 10.4193 21.2589 10.7312 22.1948H11.6378C11.3649 21.2394 11.1699 20.3523 11.0529 19.5334C10.9164 18.6171 10.8482 17.7641 10.8482 16.9745C10.8482 16.1848 10.9164 15.3318 11.0529 14.4155C11.1699 13.5966 11.3649 12.7192 11.6378 11.7834H10.7312ZM19.4172 11.7834C19.6901 12.7387 19.89 13.621 20.0167 14.4301C20.1434 15.2392 20.2068 16.0873 20.2068 16.9745C20.2068 17.8616 20.1483 18.7097 20.0313 19.5188C19.9143 20.328 19.7096 21.2199 19.4172 22.1948H20.3238C20.6357 21.2589 20.8648 20.3621 21.011 19.5042C21.1573 18.6463 21.2304 17.808 21.2304 16.9891C21.2304 16.1702 21.1573 15.3318 21.011 14.474C20.8648 13.6161 20.6357 12.7192 20.3238 11.7834H19.4172Z" fill="#797979"/>
</svg>
