<svg width="34" height="34" viewBox="0 0 34 34" fill="none" xmlns="http://www.w3.org/2000/svg">
<path d="M28.1429 9.71429H23.8571V8.21429C23.8571 8.09643 23.7607 8 23.6429 8H22.1429C22.025 8 21.9286 8.09643 21.9286 8.21429V9.71429H17.9643V8.21429C17.9643 8.09643 17.8679 8 17.75 8H16.25C16.1321 8 16.0357 8.09643 16.0357 8.21429V9.71429H12.0714V8.21429C12.0714 8.09643 11.975 8 11.8571 8H10.3571C10.2393 8 10.1429 8.09643 10.1429 8.21429V9.71429H5.85714C5.38304 9.71429 5 10.0973 5 10.5714V26C5 26.4741 5.38304 26.8571 5.85714 26.8571H28.1429C28.617 26.8571 29 26.4741 29 26V10.5714C29 10.0973 28.617 9.71429 28.1429 9.71429ZM14.6429 22.1429C14.6429 22.2607 14.5464 22.3571 14.4286 22.3571H9.5C9.38214 22.3571 9.28571 22.2607 9.28571 22.1429V20.8571C9.28571 20.7393 9.38214 20.6429 9.5 20.6429H14.4286C14.5464 20.6429 14.6429 20.7393 14.6429 20.8571V22.1429ZM14.6429 18.5C14.6429 18.6179 14.5464 18.7143 14.4286 18.7143H9.5C9.38214 18.7143 9.28571 18.6179 9.28571 18.5V17.2143C9.28571 17.0964 9.38214 17 9.5 17H14.4286C14.5464 17 14.6429 17.0964 14.6429 17.2143V18.5ZM24.6741 16.0545L20.2545 22.1804C20.215 22.2351 20.1631 22.2797 20.103 22.3105C20.0429 22.3412 19.9764 22.3573 19.9089 22.3573C19.8414 22.3573 19.7749 22.3412 19.7148 22.3105C19.6548 22.2797 19.6028 22.2351 19.5634 22.1804L16.5045 17.9429C16.4027 17.8009 16.5045 17.6027 16.6786 17.6027H18.1491C18.2857 17.6027 18.4143 17.6696 18.4946 17.7795L19.9089 19.7375L22.6866 15.8884C22.767 15.7759 22.8955 15.7116 23.0321 15.7116H24.5C24.6741 15.7143 24.7759 15.9125 24.6741 16.0545Z" fill="url(#paint0_linear_209_202)"/>
<defs>
<linearGradient id="paint0_linear_209_202" x1="4.72932" y1="18.1504" x2="29.2707" y2="18.1504" gradientUnits="userSpaceOnUse">
<stop stop-color="#02C63B"/>
<stop offset="1" stop-color="#1ECB51" stop-opacity="0.91"/>
</linearGradient>
</defs>
</svg>
