<svg width="200" height="25" viewBox="0 0 200 25" fill="none" xmlns="http://www.w3.org/2000/svg">
<path d="M48.5589 16.6708C48.6189 17.7034 48.8718 18.5419 49.3176 19.1862C50.1664 20.3923 51.6625 20.9953 53.8058 20.9953C54.766 20.9953 55.6405 20.8631 56.4293 20.5988C57.9553 20.0866 58.7184 19.1697 58.7184 17.848C58.7184 16.8567 58.3969 16.1504 57.7539 15.7291C57.1023 15.3161 56.0821 14.9568 54.6932 14.6511L52.134 14.0935C50.4622 13.73 49.2791 13.3294 48.5846 12.8916C47.3843 12.1316 46.7842 10.9958 46.7842 9.48408C46.7842 7.84847 47.3715 6.50612 48.546 5.45702C49.7206 4.40791 51.3838 3.88336 53.5358 3.88336C55.5162 3.88336 57.1966 4.34596 58.5769 5.27115C59.9658 6.18808 60.6602 7.65848 60.6602 9.68233H58.2554C58.1268 8.70758 57.8525 7.95999 57.4324 7.43957C56.6522 6.4896 55.3276 6.01461 53.4586 6.01461C51.9497 6.01461 50.8651 6.32025 50.205 6.93154C49.5448 7.54283 49.2148 8.25324 49.2148 9.06279C49.2148 9.95493 49.6006 10.6075 50.3722 11.0206C50.878 11.2849 52.0225 11.6153 53.8058 12.0118L56.455 12.5942C57.7324 12.8751 58.7184 13.2592 59.4128 13.7466C60.6131 14.5974 61.2132 15.8324 61.2132 17.4515C61.2132 19.4671 60.4502 20.9085 58.9241 21.7759C57.4066 22.6433 55.6405 23.077 53.6258 23.077C51.2767 23.077 49.4377 22.4987 48.1088 21.3422C46.7799 20.194 46.1283 18.6369 46.1541 16.6708H48.5589Z" fill="#1F2932"/>
<path d="M72.4144 3.84619C74.8064 3.84619 76.6625 4.45335 77.9828 5.66766C79.3031 6.88198 80.0361 8.2615 80.1819 9.80624H77.687C77.4041 8.63323 76.8383 7.70391 75.9895 7.01828C75.1493 6.33264 73.9662 5.98983 72.4401 5.98983C70.5797 5.98983 69.075 6.62177 67.9262 7.88564C66.7859 9.14126 66.2158 11.0701 66.2158 13.6722C66.2158 15.8035 66.7302 17.5341 67.759 18.864C68.7964 20.1857 70.3396 20.8466 72.3887 20.8466C74.2748 20.8466 75.7109 20.1486 76.6968 18.7525C77.2198 18.0173 77.6099 17.0508 77.8671 15.853H80.3619C80.139 17.7695 79.4017 19.3762 78.15 20.6731C76.6496 22.2344 74.6263 23.015 72.08 23.015C69.8852 23.015 68.0419 22.3748 66.5502 21.0944C64.5869 19.401 63.6052 16.7865 63.6052 13.2509C63.6052 10.5662 64.3425 8.36476 65.8171 6.64655C67.4118 4.77964 69.6109 3.84619 72.4144 3.84619Z" fill="#1F2932"/>
<path d="M83.5512 4.34183H86.1361V11.8631H95.9612V4.34183H98.5461V22.5441H95.9612V14.0316H86.1361V22.5441H83.5512V4.34183Z" fill="#1F2932"/>
<path d="M110.673 3.84619C114.008 3.84619 116.477 4.87877 118.081 6.94393C119.332 8.55476 119.958 10.6158 119.958 13.127C119.958 15.8448 119.242 18.1041 117.811 19.9049C116.13 22.0196 113.734 23.077 110.622 23.077C107.715 23.077 105.431 22.1518 103.767 20.3014C102.284 18.5171 101.543 16.2619 101.543 13.5359C101.543 11.0743 102.177 8.96779 103.446 7.21653C105.075 4.96964 107.484 3.84619 110.673 3.84619ZM110.93 20.8714C113.185 20.8714 114.814 20.0949 115.817 18.5419C116.829 16.9806 117.335 15.188 117.335 13.1642C117.335 11.0247 116.752 9.30234 115.586 7.99716C114.428 6.69198 112.842 6.03939 110.828 6.03939C108.873 6.03939 107.278 6.68785 106.044 7.98477C104.809 9.27343 104.192 11.1775 104.192 13.697C104.192 15.7126 104.719 17.4143 105.773 18.8021C106.837 20.1816 108.556 20.8714 110.93 20.8714Z" fill="#1F2932"/>
<path d="M131.172 3.84619C134.507 3.84619 136.976 4.87877 138.58 6.94393C139.831 8.55476 140.457 10.6158 140.457 13.127C140.457 15.8448 139.741 18.1041 138.31 19.9049C136.629 22.0196 134.233 23.077 131.121 23.077C128.214 23.077 125.93 22.1518 124.266 20.3014C122.783 18.5171 122.042 16.2619 122.042 13.5359C122.042 11.0743 122.676 8.96779 123.945 7.21653C125.574 4.96964 127.983 3.84619 131.172 3.84619ZM131.429 20.8714C133.684 20.8714 135.313 20.0949 136.316 18.5419C137.328 16.9806 137.834 15.188 137.834 13.1642C137.834 11.0247 137.251 9.30234 136.085 7.99716C134.927 6.69198 133.341 6.03939 131.327 6.03939C129.372 6.03939 127.777 6.68785 126.543 7.98477C125.308 9.27343 124.691 11.1775 124.691 13.697C124.691 15.7126 125.218 17.4143 126.272 18.8021C127.336 20.1816 129.055 20.8714 131.429 20.8714Z" fill="#1F2932"/>
<path d="M143.518 4.34183H146.077V20.3757H155.645V22.5441H143.518V4.34183Z" fill="#9B51E0"/>
<path d="M158.757 4.34183H161.342V22.5441H158.757V4.34183Z" fill="#1F2932"/>
<path d="M165.509 4.34183H168.531L178.073 19.0871V4.34183H180.504V22.5441H177.636L167.952 7.8113V22.5441H165.509V4.34183Z" fill="#1F2932"/>
<path d="M184.542 4.34183H187.036V13.2138L196.244 4.34183H199.781L191.923 11.6773L199.999 22.5441H196.669L190.059 13.412L187.036 16.2V22.5441H184.542V4.34183Z" fill="#1F2932"/>
<path fill-rule="evenodd" clip-rule="evenodd" d="M35.8721 11.0841L27.3768 2.58883C26.5948 1.80687 25.327 1.80687 24.5451 2.58883L16.0498 11.0841C15.2678 11.8661 15.2678 13.1339 16.0498 13.9159L16.7309 14.597L15.315 16.0129L14.6339 15.3318C13.07 13.7678 13.07 11.2322 14.6339 9.66824L23.1292 1.17295C24.6931 -0.390985 27.2288 -0.390984 28.7927 1.17295L37.288 9.66824C38.8519 11.2322 38.8519 13.7678 37.288 15.3318L28.7927 23.827C27.2288 25.391 24.6931 25.391 23.1292 23.827L20.4232 21.121L21.8391 19.7052L24.5451 22.4112C25.327 23.1931 26.5948 23.1931 27.3768 22.4112L35.8721 13.9159C36.6541 13.1339 36.6541 11.8661 35.8721 11.0841Z" fill="#9B51E0"/>
<path fill-rule="evenodd" clip-rule="evenodd" d="M13.9159 2.58883L16.398 5.07097L17.8139 3.65509L15.3318 1.17295C13.7678 -0.390984 11.2322 -0.390985 9.66824 1.17295L1.17295 9.66824C-0.390985 11.2322 -0.390985 13.7678 1.17295 15.3318L9.66824 23.827C11.2322 25.391 13.7678 25.391 15.3318 23.827L18.6695 20.4893L23.6275 15.5335L23.827 15.3318C25.391 13.7678 25.391 11.2322 23.827 9.66824L22.8973 8.73847L21.4814 10.1544L22.4112 11.0841C23.1931 11.8661 23.1931 13.1339 22.4112 13.9159L13.9159 22.4112C13.1339 23.1931 11.8661 23.1931 11.0841 22.4112L2.58883 13.9159C1.80687 13.1339 1.80686 11.8661 2.58883 11.0841L11.0841 2.58883C11.8661 1.80687 13.1339 1.80687 13.9159 2.58883Z" fill="#1F2932"/>
<path d="M20.8721 3.49542L22.2846 4.9079L17.3277 9.86477L15.9152 8.45229L20.8721 3.49542Z" fill="#9B51E0"/>
</svg>
