<svg width="24" height="24" viewBox="0 0 24 24" fill="none" xmlns="http://www.w3.org/2000/svg">
<g clip-path="url(#clip0_50_431)">
<path d="M23.456 4.44298C23.0789 4.61021 22.6913 4.75134 22.2952 4.86593C22.7641 4.3356 23.1217 3.7116 23.3399 3.02876C23.3888 2.87571 23.3381 2.70817 23.2123 2.60807C23.0867 2.50789 22.9121 2.49589 22.7737 2.57787C21.9326 3.07676 21.0251 3.43529 20.0735 3.64494C19.115 2.70833 17.8131 2.17529 16.4672 2.17529C13.6263 2.17529 11.3151 4.48649 11.3151 7.32732C11.3151 7.55106 11.3292 7.77356 11.3573 7.99297C7.83196 7.68345 4.55457 5.95073 2.30399 3.19003C2.22378 3.09163 2.10022 3.0386 1.97372 3.04874C1.84714 3.05865 1.73341 3.13003 1.66946 3.23973C1.21299 4.02298 0.971678 4.9188 0.971678 5.83026C0.971678 7.07168 1.4149 8.24954 2.19785 9.1699C1.95978 9.08745 1.72876 8.9844 1.50827 8.862C1.3899 8.79612 1.24543 8.79713 1.12783 8.86456C1.01016 8.93199 0.936375 9.05602 0.933279 9.19158C0.932737 9.21442 0.932737 9.23725 0.932737 9.2604C0.932737 11.1134 1.93005 12.7817 3.45483 13.691C3.32383 13.678 3.19292 13.659 3.06285 13.6341C2.92876 13.6085 2.79088 13.6555 2.70045 13.7578C2.60987 13.86 2.57991 14.0024 2.62164 14.1325C3.18603 15.8945 4.63911 17.1906 6.39576 17.5858C4.9388 18.4983 3.27266 18.9763 1.5236 18.9763C1.15865 18.9763 0.791601 18.9549 0.432375 18.9124C0.253924 18.8911 0.0832914 18.9965 0.0225172 19.1662C-0.038257 19.336 0.0261559 19.5253 0.177975 19.6226C2.42492 21.0633 5.02303 21.8248 7.69129 21.8248C12.9368 21.8248 16.2182 19.3512 18.0472 17.2762C20.328 14.6887 21.6361 11.2639 21.6361 7.88002C21.6361 7.73865 21.6339 7.59589 21.6296 7.45359C22.5294 6.77563 23.3041 5.95514 23.9346 5.01209C24.0303 4.86887 24.02 4.67958 23.909 4.54773C23.7982 4.41581 23.6136 4.37315 23.456 4.44298Z" fill="#02C63B"/>
</g>
<defs>
<clipPath id="clip0_50_431">
<rect width="24" height="24" fill="white"/>
</clipPath>
</defs>
</svg>
