<svg width="34" height="34" viewBox="0 0 34 34" fill="none" xmlns="http://www.w3.org/2000/svg">
<path d="M29 14.9641C29 14.3103 28.47 13.7802 27.8162 13.7802H21.0359C20.3821 13.7802 19.8521 14.3103 19.8521 14.9641V18.5157C19.8521 19.1695 20.3821 19.6995 21.0359 19.6995H27.8162C28.47 19.6995 29 19.1695 29 18.5157V14.9641ZM23.2438 18.1354C22.4816 18.1354 21.8637 17.5176 21.8637 16.7554C21.8637 15.9932 22.4816 15.3753 23.2438 15.3753C24.006 15.3753 24.6239 15.9932 24.6239 16.7554C24.6239 17.5175 24.006 18.1354 23.2438 18.1354Z" fill="url(#paint0_linear_209_155)"/>
<path d="M18.2925 12.1659H27.0628V8.61435C27.0628 7.7242 26.3745 7 25.4843 7H6.65019C5.76004 7 5 7.7242 5 8.61435V24.9731C5 25.8633 5.76004 26.5875 6.65019 26.5875H25.4843C26.3744 26.5875 27.0628 25.8633 27.0628 24.9731V21.3139H18.3085L18.2925 12.1659Z" fill="url(#paint1_linear_209_155)"/>
<defs>
<linearGradient id="paint0_linear_209_155" x1="29" y1="17.2705" x2="5.23843" y2="16.7142" gradientUnits="userSpaceOnUse">
<stop stop-color="#FF0000"/>
<stop offset="1" stop-color="#FF0000"/>
</linearGradient>
<linearGradient id="paint1_linear_209_155" x1="5" y1="16.3964" x2="29.2384" y2="16.8732" gradientUnits="userSpaceOnUse">
<stop offset="0.294792" stop-color="#FF3030"/>
<stop offset="1" stop-color="#FE5151"/>
</linearGradient>
</defs>
</svg>
